<svg xmlns="http://www.w3.org/2000/svg" width="1200" height="1200" viewBox="0 0 1200 1200" fill="none">
  <defs>
    <radialGradient id="ink" cx=".3" cy=".18" r=".86">
      <stop offset="0" stop-color="#55585a"/>
      <stop offset=".22" stop-color="#333638"/>
      <stop offset=".72" stop-color="#202326"/>
      <stop offset=".94" stop-color="#131517"/>
      <stop offset="1" stop-color="#3b3d3d"/>
    </radialGradient>
    <radialGradient id="shell" cx=".29" cy=".17" r=".9">
      <stop offset="0" stop-color="#fffefa"/>
      <stop offset=".5" stop-color="#f1f0e9"/>
      <stop offset=".84" stop-color="#d4d3cc"/>
      <stop offset=".97" stop-color="#a6a69e"/>
      <stop offset="1" stop-color="#efeee7"/>
    </radialGradient>
    <filter id="shade" x="-20%" y="-20%" width="140%" height="155%">
      <feGaussianBlur in="SourceAlpha" stdDeviation="11"/>
      <feOffset dy="15"/>
      <feComponentTransfer><feFuncA type="linear" slope=".28"/></feComponentTransfer>
      <feMerge><feMergeNode/><feMergeNode in="SourceGraphic"/></feMerge>
    </filter>
    <linearGradient id="silk" x1=".1" y1="0" x2=".88" y2="1">
      <stop offset="0" stop-color="#fff" stop-opacity=".32"/>
      <stop offset=".44" stop-color="#fff" stop-opacity=".08"/>
      <stop offset="1" stop-color="#fff" stop-opacity="0"/>
    </linearGradient>
  </defs>
  <g filter="url(#shade)" transform="translate(0 308)">
    <circle cx="300" cy="292" r="245" fill="url(#ink)" stroke="#111416" stroke-width="4"/>
    <ellipse cx="300" cy="292" rx="239" ry="239" fill="url(#silk)"/>
    <g stroke="#e1e4e2" stroke-opacity=".12" stroke-width="3" stroke-linecap="round">
      <path d="M136 276c59-18 119-18 181 1"/><path d="M159 300c49-12 95-12 139 1"/>
      <path d="M255 173c30-12 55-10 78 1"/>
    </g>
    <circle cx="900" cy="292" r="245" fill="url(#shell)" stroke="#b2b1a9" stroke-width="4"/>
    <ellipse cx="900" cy="292" rx="239" ry="239" fill="url(#silk)"/>
    <g stroke="#fff" stroke-opacity=".35" stroke-width="3" stroke-linecap="round">
      <path d="M737 277c55-17 112-16 166 1"/><path d="M765 301c42-11 83-11 122 1"/>
      <path d="M852 174c26-11 50-10 73 1"/>
    </g>
  </g>
</svg>
